/* XPM */
static char * Bogo_D_Manager_Manager_Suit_Red_Tie_9[] = {
"16 16 100 2",
"   c None",
".  c #9F9F9F",
"X  c #CECECE",
"o  c #9D9D9D",
"O  c #252525",
"+  c #464646",
"@  c #C5AFAF",
"#  c #C8ABAB",
"$  c #C7AAAA",
"%  c #CEBCBC",
"&  c #727272",
"*  c #000000",
"=  c #141414",
"-  c #3E3E3E",
";  c #BBBBBB",
":  c #D3CDCD",
">  c #E6E6E6",
",  c #E9E9E9",
"<  c #D0C4C4",
"1  c #AEAEAE",
"2  c #2D2D2D",
"3  c #2C2C2C",
"4  c #575757",
"5  c #444444",
"6  c #DBDBDB",
"7  c #DADADA",
"8  c #CFCFCF",
"9  c #DCDCDC",
"0  c #DFDFDF",
"q  c #414141",
"w  c #5A5A5A",
"e  c #262626",
"r  c #242424",
"t  c #3D3D3D",
"y  c #292929",
"u  c #D7D7D7",
"i  c #E7E6E6",
"p  c #A88788",
"a  c #A99192",
"s  c #EAEAEA",
"d  c #1E1E1E",
"f  c #1B1B1B",
"g  c #2E2E2E",
"h  c #222222",
"j  c #9E9E9E",
"k  c #C8C8C8",
"l  c #8D3235",
"z  c #91292C",
"x  c #919191",
"c  c #232323",
"v  c #303030",
"b  c #161616",
"n  c #151515",
"m  c #1F1F1F",
"M  c #191919",
"N  c #C0C0C0",
"B  c #AC797B",
"V  c #9E5557",
"C  c #ABABAB",
"Z  c #111111",
"A  c #1C1C1C",
"S  c #171717",
"D  c #858585",
"F  c #AB5557",
"G  c #A74B4D",
"H  c #6F6F6F",
"J  c #131313",
"K  c #181818",
"L  c #4E4E4E",
"P  c #99393C",
"I  c #9B4446",
"U  c #3B3B3B",
"Y  c #1D1D1D",
"T  c #101010",
"R  c #7E2C2E",
"E  c #7C3335",
"W  c #0F0F0F",
"Q  c #4B0E10",
"!  c #441112",
"~  c #0D0D0D",
"^  c #0E0E0E",
"/  c #1A1A1A",
"(  c #121212",
")  c #2E0B0C",
"_  c #280D0D",
"`  c #0C0C0C",
"'  c #200C0D",
"]  c #160E0F",
"[  c #909090",
"{  c #2A2A2A",
"}  c #0A0A0A",
"|  c #121010",
" . c #373737",
".. c #7C7C7C",
"X. c #6A6A6A",
"o. c #090909",
"O. c #050505",
"+. c #030303",
"@. c #010101",
"#. c #040404",
"            . X X o O           ",
"          + @ # $ % & *         ",
"      = - ; : > , < 1 2         ",
"    3 4 5 6 7 X 8 9 0 q w e     ",
"    r t y u i p a s 8 3 - d     ",
"    f g h j k l z k x c v b     ",
"    n r m M N B V C M m O Z     ",
"    = r A S D F G H S A O Z     ",
"    J r A K L P I U M Y r T     ",
"    Z h m K h R E K K m h W     ",
"    T m d S = Q ! = S Y m ~     ",
"    ^ Y / S ( ) _ Z b M A `     ",
"    ~ M S n ( ' ] f [ { K }     ",
"    ` b = J ( | W  ...X.Y o.    ",
"    O.Z Z T T ( ^ ^ ^ W ^ +.    ",
"    * @.+.+.+.#.+.@.@.@.* *     "};
